<svg viewBox="0 0 620 200" xmlns="http://www.w3.org/2000/svg" role="img" aria-label="Lazer Believe">
  <defs>
    <path id="lb-tile2" d="M4 4 Q50 16 96 4 Q84 50 96 96 Q50 84 4 96 Q16 50 4 4 Z"/>
  </defs>
  <g fill="currentColor">
    <!-- Mark -->
    <g transform="translate(0,6)">
      <use href="#lb-tile2" x="0"   y="0"/>
      <use href="#lb-tile2" x="100" y="0"/>
      <use href="#lb-tile2" x="0"   y="100"/>
      <use href="#lb-tile2" x="100" y="100"/>
      <path fill="#ffffff" d="M100 70 Q112 88 130 100 Q112 112 100 130 Q88 112 70 100 Q88 88 100 70 Z"/>
      <circle fill="#ffffff" cx="100" cy="100" r="9"/>
      <path d="M150 12 L182 6 L176 38 L168 24 Z"/>
    </g>
    <!-- Wordmark -->
    <text x="232" y="118" font-family="Archivo, 'Arial Black', Helvetica, sans-serif" font-weight="800" font-size="116" letter-spacing="-4">Lazer</text>
    <text x="236" y="172" font-family="Archivo, Arial, sans-serif" font-weight="600" font-size="46" letter-spacing="16">BELIEVE</text>
  </g>
</svg>
