<svg viewBox="0 0 360 110" xmlns="http://www.w3.org/2000/svg" role="img" aria-label="Lazer Believe">
  <g fill="currentColor">
    <!-- Mark -->
    <g transform="translate(4,8) scale(0.94)">
      <path d="M6 6 H46 A40 40 0 0 1 6 46 Z"/>
      <path d="M94 6 V46 A40 40 0 0 1 54 6 Z"/>
      <path d="M6 94 V54 A40 40 0 0 1 46 94 Z"/>
      <path d="M94 94 H54 A40 40 0 0 1 94 54 Z"/>
      <circle cx="50" cy="50" r="5.5"/>
      <path d="M74 4 L96 4 L96 26 L88.5 18.5 L80 27 L71.5 18.5 L80 10 Z"/>
    </g>
    <!-- Wordmark -->
    <text x="120" y="64" font-family="Archivo, 'Arial Black', sans-serif" font-weight="800" font-size="62" letter-spacing="-2">Lazer</text>
    <text x="122" y="96" font-family="Archivo, Arial, sans-serif" font-weight="600" font-size="26" letter-spacing="10">BELIEVE</text>
  </g>
</svg>
